<svg width="109" height="45" viewBox="0 0 109 45" fill="none" xmlns="http://www.w3.org/2000/svg">
<path d="M15.504 35H11.184V4.52H0.48V0.727998H26.16V4.52H15.504V35ZM86.712 35H81.624L69.48 18.632L65.976 21.704V35H61.656V0.727998H65.976V17.624C66.936 16.536 67.912 15.448 68.904 14.36C69.896 13.272 70.888 12.184 71.88 11.096L81.144 0.727998H86.184L72.6 15.656L86.712 35Z" fill="#676767"/>
<path d="M46.0159 4.04C42.3359 4.04 39.4399 5.272 37.3279 7.736C35.2159 10.2 34.1599 13.576 34.1599 17.864C34.1599 22.12 35.1359 25.496 37.0879 27.992C39.0719 30.456 42.0319 31.688 45.9679 31.688C47.4719 31.688 48.8959 31.56 50.2399 31.304C51.5839 31.048 52.8959 30.728 54.1759 30.344V34.088C52.8959 34.568 51.5679 34.92 50.1919 35.144C48.8479 35.368 47.2319 35.48 45.3439 35.48C41.8559 35.48 38.9439 34.76 36.6079 33.32C34.2719 31.88 32.5119 29.832 31.3279 27.176C30.1759 24.52 29.5999 21.4 29.5999 17.816C29.5999 14.36 30.2239 11.32 31.4719 8.696C32.7519 6.04 34.6239 3.976 37.0879 2.504C39.5519 0.999998 42.5439 0.247998 46.0639 0.247998C49.6799 0.247998 52.8319 0.919998 55.5199 2.264L53.7919 5.912C52.7359 5.432 51.5519 5 50.2399 4.616C48.9599 4.232 47.5519 4.04 46.0159 4.04Z" fill="#1E8BE0"/>
</svg>
